<svg width="625" height="107" viewBox="0 0 625 107" fill="none" xmlns="http://www.w3.org/2000/svg">
<path d="M26.0469 4.52316L22.322 8.94308C19.5421 6.64973 16.5955 5.60035 13.4821 5.80188C12.3841 5.91308 11.3834 6.17716 10.4799 6.58023C9.65988 6.96941 8.97882 7.49062 8.42286 8.13693C7.64451 9.10292 7.28313 10.2704 7.33873 11.6395C7.44992 12.1816 7.7001 12.6889 8.08928 13.1684C8.49235 13.6549 8.90933 14.051 9.3402 14.3637C9.76412 14.6834 10.3826 15.0031 11.2027 15.3367C12.0366 15.6563 12.7107 15.8857 13.2319 16.0316C13.7671 16.1845 14.5524 16.4138 15.5948 16.7266C17.2766 17.213 18.5553 17.6022 19.4309 17.8941C20.2996 18.1721 21.3838 18.6586 22.6833 19.3396C23.9968 20.0068 24.9628 20.7226 25.5744 21.4801C26.1859 22.2237 26.6932 23.2244 27.1033 24.4823C27.5272 25.7262 27.6662 27.1718 27.5202 28.8188V28.8744C27.277 30.6952 26.589 32.3214 25.4632 33.7669C24.0871 35.4556 22.2386 36.6787 19.9035 37.4362C17.6797 38.1173 15.2751 38.2841 12.7038 37.9366C8.23522 37.3806 4.00294 35.4904 0 32.2658L3.58597 27.7903C6.75496 30.2921 10.0143 31.7585 13.3709 32.1824C15.15 32.4256 16.7415 32.3214 18.1522 31.8766C19.3892 31.4874 20.3205 30.9037 20.9321 30.1253C21.3768 29.5693 21.6548 28.93 21.766 28.2072C21.8007 27.5262 21.6687 26.9007 21.3768 26.3448C21.078 25.7749 20.7375 25.3093 20.3483 24.9548C19.9591 24.5865 19.3337 24.2251 18.4858 23.8707C17.6519 23.5024 16.9569 23.2244 16.4009 23.0368C15.8589 22.8561 15.0458 22.6059 13.9547 22.2862C12.8775 21.9735 12.0644 21.7303 11.5085 21.5635C10.9664 21.3967 10.2089 21.1395 9.229 20.7851C8.24217 20.4168 7.48467 20.0832 6.94955 19.7844C6.42834 19.4717 5.80983 19.0547 5.08707 18.5335C4.36432 18.0192 3.79446 17.4771 3.39138 16.9212C3.00221 16.3513 2.62693 15.6633 2.27945 14.8641C1.94587 14.051 1.70959 13.1823 1.5845 12.2511V12.0565C1.37601 9.13072 2.18216 6.57328 4.00294 4.38417C5.05927 3.10546 6.40054 2.09082 8.03368 1.32637C9.60428 0.603618 11.2861 0.179696 13.0652 0.0476541C14.469 -0.0635388 15.9006 0.0198559 17.3461 0.297838C18.7916 0.57582 20.2649 1.06924 21.766 1.77114C23.2671 2.48 24.6918 3.39734 26.0469 4.52316Z" fill="white"/>
<path d="M69.1655 1.24316V25.5388C69.1655 29.1387 67.8868 32.2104 65.3293 34.7678C62.7719 37.3252 59.6932 38.604 56.1003 38.604C52.5004 38.604 49.4287 37.3252 46.8713 34.7678C44.3139 32.2104 43.0352 29.1387 43.0352 25.5388V1.24316H48.7338V25.5388C48.7338 27.5611 49.4565 29.2916 50.902 30.7371C52.3476 32.1826 54.078 32.9053 56.1003 32.9053C58.1157 32.9053 59.8531 32.1826 61.2986 30.7371C62.7441 29.2916 63.4668 27.5611 63.4668 25.5388V1.24316H69.1655Z" fill="white"/>
<path d="M107.59 37.2696L98.111 22.0918H90.3275V37.2696H84.6289V16.421H102.753C104.046 16.421 105.158 15.9623 106.089 15.0311C107.013 14.1068 107.479 12.9949 107.479 11.6953C107.479 10.3818 107.013 9.26295 106.089 8.33171C105.158 7.40742 104.046 6.9418 102.753 6.9418H84.6289V1.24316H102.698C105.478 1.24316 107.868 2.20915 109.87 4.13418C111.871 6.0453 112.962 8.3734 113.15 11.1115V11.1671C113.24 13.7454 112.49 16.0527 110.898 18.0889C109.3 20.132 107.236 21.4108 104.699 21.925L114.262 37.2696H107.59Z" fill="white"/>
<path d="M152.684 37.2696L143.205 22.0918H135.422V37.2696H129.723V16.421H147.847C149.14 16.421 150.252 15.9623 151.183 15.0311C152.107 14.1068 152.573 12.9949 152.573 11.6953C152.573 10.3818 152.107 9.26295 151.183 8.33171C150.252 7.40742 149.14 6.9418 147.847 6.9418H129.723V1.24316H147.792C150.572 1.24316 152.962 2.20915 154.964 4.13418C156.965 6.0453 158.056 8.3734 158.244 11.1115V11.1671C158.334 13.7454 157.584 16.0527 155.992 18.0889C154.394 20.132 152.33 21.4108 149.793 21.925L159.356 37.2696H152.684Z" fill="white"/>
<path d="M202.615 31.5432V37.2696H174.817V16.421H202.615V22.0918H180.516V31.5432H202.615ZM174.817 1.24316H202.615V6.9418H174.817V1.24316Z" fill="white"/>
<path d="M241.661 37.2696L237.964 28.6244H220.924L217.282 37.2696H211L219.534 17.1993H225.816L223.454 22.759H235.49C229.722 9.23515 226.664 2.06321 226.317 1.24316H232.599L247.944 37.2696H241.661Z" fill="white"/>
<path d="M281.703 37.2696H255.462V1.24316H261.16V31.5432H281.703V37.2696Z" fill="white"/>
<path d="M342.858 37.2696H337.159V12.6682H342.858V37.2696ZM354.7 6.9418H325.317V1.24316H354.7V6.9418Z" fill="white"/>
<path d="M397.952 31.5432V37.2696H370.154V16.421H397.952V22.0918H375.852V31.5432H397.952ZM370.154 1.24316H397.952V6.9418H370.154V1.24316Z" fill="white"/>
<path d="M415.897 28.7632C414.229 25.8583 413.395 22.6893 413.395 19.2562C413.395 15.8301 414.229 12.6681 415.897 9.77704C417.579 6.87213 419.879 4.56488 422.791 2.85529C425.717 1.15265 428.893 0.297852 432.326 0.297852C434.251 0.297852 436.12 0.596683 437.941 1.18739C439.755 1.76421 441.416 2.57036 442.917 3.60584C444.432 4.62742 445.78 5.85749 446.947 7.303L442.778 11.4727C441.569 9.82569 440.054 8.52612 438.219 7.58098C436.384 6.63584 434.417 6.16327 432.326 6.16327C428.726 6.16327 425.654 7.44199 423.097 9.99943C420.539 12.5569 419.26 15.6425 419.26 19.2562C419.26 22.8561 420.539 25.9278 423.097 28.4852C425.654 31.0427 428.726 32.3214 432.326 32.3214C434.417 32.3214 436.384 31.8488 438.219 30.9037C440.054 29.9585 441.569 28.6659 442.778 27.0119L446.947 31.1817C445.203 33.3499 443.056 35.0665 440.498 36.3243C437.941 37.5613 435.217 38.1868 432.326 38.1868C428.893 38.1868 425.717 37.339 422.791 35.6572C419.879 33.9545 417.579 31.6542 415.897 28.7632Z" fill="white"/>
<path d="M486.113 22.0918H468.1V37.2696H462.401V16.421H471.769V16.3654C478.976 16.4071 483.757 16.421 486.113 16.421V1.24316H491.784V37.2696H486.113V22.0918ZM462.401 10.6946V1.24316H468.1V10.6946H462.401Z" fill="white"/>
<path d="M13.4821 104.955H10.8135L9.368 103.315C8.93712 103.502 8.4854 103.641 8.00588 103.732C7.54026 103.843 7.0399 103.899 6.50478 103.899C5.57354 103.899 4.7118 103.739 3.91955 103.426C3.1412 103.113 2.45319 102.669 1.86248 102.092C1.28567 101.522 0.833946 100.841 0.500368 100.062C0.166789 99.2841 0 98.4502 0 97.5606C0 96.6572 0.166789 95.8093 0.500368 95.031C0.833946 94.2526 1.28567 93.5785 1.86248 93.0017C2.45319 92.4318 3.1412 91.9871 3.91955 91.6674C4.7118 91.3547 5.57354 91.1948 6.50478 91.1948C7.42907 91.1948 8.29081 91.3547 9.09001 91.6674C9.88226 91.9871 10.5703 92.4318 11.1471 93.0017C11.7169 93.5785 12.1756 94.2526 12.5092 95.031C12.8428 95.8093 13.0096 96.6572 13.0096 97.5606C13.0096 98.4919 12.8289 99.3536 12.4814 100.146C12.1478 100.924 11.6822 101.605 11.0915 102.175L13.4821 104.955ZM6.50478 101.425C6.89395 101.425 7.26228 101.383 7.61671 101.286L5.19826 98.478H7.86689L9.368 100.174C9.65988 99.8401 9.89616 99.4509 10.063 99.0061C10.2436 98.5613 10.3409 98.0818 10.3409 97.5606C10.3409 96.824 10.1741 96.1638 9.84056 95.5869C9.50699 94.9962 9.04832 94.5306 8.47845 94.197C7.90164 93.8496 7.24143 93.6689 6.50478 93.6689C5.78203 93.6689 5.12877 93.8496 4.55891 94.197C3.98209 94.5306 3.51647 94.9962 3.169 95.5869C2.83542 96.1638 2.66863 96.824 2.66863 97.5606C2.66863 98.2834 2.83542 98.9436 3.169 99.5343C3.51647 100.111 3.98209 100.577 4.55891 100.924C5.12877 101.258 5.78203 101.425 6.50478 101.425Z" fill="white"/>
<path d="M23.143 103.899C22.1771 103.899 21.3153 103.69 20.5578 103.287C19.7934 102.884 19.1957 102.314 18.7509 101.591C18.3201 100.869 18.1116 100.028 18.1116 99.0618V91.4451H20.7524V98.9506C20.7524 99.6942 20.9748 100.299 21.4196 100.757C21.8643 101.202 22.4342 101.425 23.143 101.425C23.845 101.425 24.4218 101.202 24.8665 100.757C25.3113 100.299 25.5337 99.6942 25.5337 98.9506V91.4451H28.1745V99.0618C28.1745 100.028 27.9521 100.869 27.5074 101.591C27.0765 102.314 26.4858 102.884 25.7283 103.287C24.9638 103.69 24.1021 103.899 23.143 103.899Z" fill="white"/>
<path d="M42.0817 103.648L41.2199 101.341H36.3552L35.5213 103.648H32.7415L37.4949 91.4451H39.9968L44.9449 103.648H42.0817ZM38.7737 94.6697L37.1892 99.034H40.386L38.7737 94.6697Z" fill="white"/>
<path d="M52.2428 101.202H56.9129V103.648H49.6019V91.4451H52.2428V101.202Z" fill="white"/>
<path d="M61.827 103.648V91.4451H64.4679V103.648H61.827Z" fill="white"/>
<path d="M78.819 91.4451V93.9191H75.4276V103.648H72.759V93.9191H69.3954V91.4451H78.819Z" fill="white"/>
<path d="M93.8746 91.4451L89.5659 98.7282V103.648H86.8695V98.7004L82.6163 91.4451H85.424L88.2316 96.3376L91.067 91.4451H93.8746Z" fill="white"/>
<path d="M116.132 91.4451L111.823 98.7282V103.648H109.126V98.7004L104.873 91.4451H107.681L110.489 96.3376L113.324 91.4451H116.132Z" fill="white"/>
<path d="M126.698 103.899C125.766 103.899 124.905 103.739 124.112 103.426C123.334 103.113 122.646 102.669 122.055 102.092C121.478 101.522 121.027 100.841 120.693 100.062C120.36 99.2841 120.193 98.4502 120.193 97.5606C120.193 96.6572 120.36 95.8093 120.693 95.031C121.027 94.2526 121.478 93.5785 122.055 93.0017C122.646 92.4318 123.334 91.9871 124.112 91.6674C124.905 91.3547 125.766 91.1948 126.698 91.1948C127.622 91.1948 128.484 91.3547 129.283 91.6674C130.075 91.9871 130.763 92.4318 131.34 93.0017C131.91 93.5785 132.368 94.2526 132.702 95.031C133.036 95.8093 133.202 96.6572 133.202 97.5606C133.202 98.4502 133.036 99.2841 132.702 100.062C132.368 100.841 131.91 101.522 131.34 102.092C130.763 102.669 130.075 103.113 129.283 103.426C128.484 103.739 127.622 103.899 126.698 103.899ZM126.698 101.425C127.434 101.425 128.094 101.258 128.671 100.924C129.241 100.577 129.7 100.111 130.033 99.5343C130.367 98.9644 130.534 98.3042 130.534 97.5606C130.534 96.824 130.367 96.1638 130.033 95.5869C129.7 94.9962 129.241 94.5306 128.671 94.197C128.094 93.8496 127.434 93.6689 126.698 93.6689C125.975 93.6689 125.322 93.8496 124.752 94.197C124.175 94.5306 123.709 94.9962 123.362 95.5869C123.028 96.1638 122.861 96.824 122.861 97.5606C122.861 98.2834 123.028 98.9436 123.362 99.5343C123.709 100.111 124.175 100.577 124.752 100.924C125.322 101.258 125.975 101.425 126.698 101.425Z" fill="white"/>
<path d="M143.301 103.899C142.335 103.899 141.474 103.69 140.716 103.287C139.952 102.884 139.354 102.314 138.909 101.591C138.478 100.869 138.27 100.028 138.27 99.0618V91.4451H140.911V98.9506C140.911 99.6942 141.133 100.299 141.578 100.757C142.023 101.202 142.593 101.425 143.301 101.425C144.003 101.425 144.58 101.202 145.025 100.757C145.47 100.299 145.692 99.6942 145.692 98.9506V91.4451H148.333V99.0618C148.333 100.028 148.11 100.869 147.666 101.591C147.235 102.314 146.644 102.884 145.887 103.287C145.122 103.69 144.26 103.899 143.301 103.899Z" fill="white"/>
<path d="M169.844 91.4451V93.9191H166.452V103.648H163.784V93.9191H160.42V91.4451H169.844Z" fill="white"/>
<path d="M181.453 103.648L179.062 99.4788H177.367V103.648H174.726V91.4451H179.674C180.466 91.4451 181.182 91.6258 181.814 91.9732C182.461 92.3277 182.968 92.8072 183.343 93.4187C183.732 94.0164 183.927 94.7114 183.927 95.5036C183.927 96.282 183.718 96.9908 183.315 97.6163C182.905 98.2278 182.37 98.7004 181.703 99.034L184.399 103.648H181.453ZM177.367 93.8913V97.0325H179.479C180.035 97.0325 180.466 96.8866 180.786 96.5877C181.098 96.2959 181.258 95.9206 181.258 95.4758C181.258 95.0171 181.098 94.6349 180.786 94.3361C180.466 94.0442 180.035 93.8913 179.479 93.8913H177.367Z" fill="white"/>
<path d="M194.291 103.899C193.325 103.899 192.463 103.69 191.705 103.287C190.941 102.884 190.343 102.314 189.899 101.591C189.468 100.869 189.259 100.028 189.259 99.0618V91.4451H191.9V98.9506C191.9 99.6942 192.122 100.299 192.567 100.757C193.012 101.202 193.582 101.425 194.291 101.425C194.993 101.425 195.569 101.202 196.014 100.757C196.459 100.299 196.681 99.6942 196.681 98.9506V91.4451H199.322V99.0618C199.322 100.028 199.1 100.869 198.655 101.591C198.224 102.314 197.633 102.884 196.876 103.287C196.111 103.69 195.25 103.899 194.291 103.899Z" fill="white"/>
<path d="M209.171 103.899C208.226 103.899 207.399 103.732 206.697 103.398C205.988 103.051 205.432 102.564 205.029 101.953C204.64 101.327 204.445 100.577 204.445 99.7011H207.114C207.114 100.299 207.315 100.73 207.725 101.008C208.128 101.286 208.601 101.425 209.143 101.425C209.477 101.425 209.789 101.369 210.088 101.258C210.38 101.147 210.623 100.994 210.811 100.785C211.013 100.563 211.117 100.306 211.117 100.007C211.117 99.6942 211.006 99.4509 210.783 99.2841C210.561 99.1034 210.262 98.9506 209.894 98.8394C209.518 98.7143 209.115 98.5892 208.671 98.478C208.226 98.3876 207.76 98.2695 207.281 98.1166C206.794 97.9498 206.349 97.7483 205.946 97.5051C205.536 97.2688 205.21 96.9352 204.973 96.5043C204.73 96.0804 204.612 95.5453 204.612 94.892C204.612 93.7106 205.008 92.8002 205.807 92.1678C206.6 91.5423 207.677 91.2227 209.032 91.2227C210.422 91.2227 211.492 91.5771 212.256 92.279C213.035 92.9878 213.424 93.9399 213.424 95.1422H210.811C210.811 94.6279 210.623 94.2457 210.255 94.0025C209.88 93.7453 209.456 93.6133 208.976 93.6133C208.545 93.6133 208.149 93.7106 207.781 93.8913C207.427 94.0789 207.253 94.3639 207.253 94.753C207.253 95.0519 207.35 95.2812 207.559 95.448C207.781 95.6148 208.066 95.7538 208.42 95.865C208.768 95.9761 209.157 96.0873 209.588 96.1985C210.047 96.3097 210.519 96.4487 211.006 96.6155C211.506 96.7684 211.958 96.9769 212.368 97.2549C212.792 97.519 213.132 97.8664 213.396 98.3112C213.653 98.7421 213.785 99.298 213.785 99.9791C213.785 100.855 213.57 101.584 213.146 102.175C212.736 102.752 212.18 103.19 211.478 103.482C210.769 103.76 210.005 103.899 209.171 103.899Z" fill="white"/>
<path d="M227.449 91.4451V93.9191H224.057V103.648H221.389V93.9191H218.025V91.4451H227.449Z" fill="white"/>
<path d="M232.108 106.4V105.177C232.588 105.101 232.928 104.913 233.137 104.621C233.338 104.322 233.442 103.996 233.442 103.648H231.997V100.924H234.721V103.426C234.721 104.315 234.478 105.01 233.998 105.511C233.512 106.025 232.886 106.324 232.108 106.4Z" fill="white"/>
<path d="M244.988 91.4451C245.802 91.4451 246.531 91.6327 247.184 92.001C247.831 92.3763 248.338 92.8767 248.713 93.5021C249.103 94.1345 249.297 94.8503 249.297 95.6426C249.297 96.4418 249.11 97.1645 248.741 97.8109C248.366 98.4433 247.852 98.9436 247.184 99.312C246.531 99.6664 245.802 99.8401 244.988 99.8401H242.931V103.648H240.291V91.4451H244.988ZM244.877 97.3939C245.391 97.3939 245.808 97.2271 246.128 96.8935C246.462 96.5599 246.629 96.143 246.629 95.6426C246.629 95.1422 246.462 94.7253 246.128 94.3917C245.808 94.0581 245.391 93.8913 244.877 93.8913H242.931V97.3939H244.877Z" fill="white"/>
<path d="M260.984 103.648L258.593 99.4788H256.897V103.648H254.256V91.4451H259.205C259.997 91.4451 260.713 91.6258 261.345 91.9732C261.991 92.3277 262.499 92.8072 262.874 93.4187C263.263 94.0164 263.458 94.7114 263.458 95.5036C263.458 96.282 263.249 96.9908 262.846 97.6163C262.436 98.2278 261.901 98.7004 261.234 99.034L263.93 103.648H260.984ZM256.897 93.8913V97.0325H259.01C259.566 97.0325 259.997 96.8866 260.316 96.5877C260.629 96.2959 260.789 95.9206 260.789 95.4758C260.789 95.0171 260.629 94.6349 260.316 94.3361C259.997 94.0442 259.566 93.8913 259.01 93.8913H256.897Z" fill="white"/>
<path d="M268.901 103.648V91.4451H271.542V103.648H268.901Z" fill="white"/>
<path d="M283.058 103.899C282.168 103.899 281.335 103.739 280.556 103.426C279.792 103.113 279.125 102.669 278.555 102.092C277.999 101.522 277.561 100.841 277.248 100.062C276.929 99.2841 276.776 98.4502 276.776 97.5606C276.776 96.6572 276.929 95.8093 277.248 95.031C277.561 94.2526 277.999 93.5785 278.555 93.0017C279.125 92.4318 279.792 91.9871 280.556 91.6674C281.335 91.3547 282.168 91.1948 283.058 91.1948C284.059 91.1948 284.962 91.4033 285.782 91.8064C286.616 92.2164 287.311 92.7932 287.867 93.5299C288.423 94.2526 288.791 95.1005 288.979 96.0595H286.338C286.095 95.3368 285.678 94.7669 285.087 94.336C284.51 93.9121 283.836 93.6967 283.058 93.6967C282.37 93.6967 281.752 93.8774 281.196 94.2248C280.653 94.5584 280.23 95.024 279.917 95.6147C279.597 96.1916 279.444 96.8379 279.444 97.5606C279.444 98.3042 279.597 98.9644 279.917 99.5343C280.23 100.111 280.653 100.563 281.196 100.896C281.752 101.23 282.37 101.397 283.058 101.397C283.871 101.397 284.566 101.174 285.143 100.73C285.713 100.271 286.116 99.6455 286.338 98.8671H289.007C288.819 99.8887 288.451 100.778 287.895 101.536C287.353 102.279 286.672 102.863 285.838 103.287C285.004 103.69 284.073 103.899 283.058 103.899Z" fill="white"/>
<path d="M296.672 101.202H301.536V103.648H294.031V91.4451H301.342V93.8913H296.672V96.282H300.897V98.6726H296.672V101.202Z" fill="white"/>
<path d="M310.958 103.899C310.013 103.899 309.186 103.732 308.484 103.398C307.776 103.051 307.22 102.564 306.817 101.953C306.427 101.327 306.233 100.577 306.233 99.7011H308.901C308.901 100.299 309.103 100.73 309.513 101.008C309.916 101.286 310.389 101.425 310.931 101.425C311.264 101.425 311.577 101.369 311.876 101.258C312.168 101.147 312.411 100.994 312.599 100.785C312.8 100.563 312.904 100.306 312.904 100.007C312.904 99.6942 312.793 99.4509 312.571 99.2841C312.348 99.1034 312.05 98.9506 311.681 98.8394C311.306 98.7143 310.903 98.5892 310.458 98.478C310.013 98.3876 309.548 98.2695 309.068 98.1166C308.582 97.9498 308.137 97.7483 307.734 97.5051C307.324 97.2688 306.997 96.9352 306.761 96.5043C306.518 96.0804 306.4 95.5453 306.4 94.892C306.4 93.7106 306.796 92.8002 307.595 92.1678C308.387 91.5423 309.464 91.2227 310.819 91.2227C312.209 91.2227 313.28 91.5771 314.044 92.279C314.822 92.9878 315.212 93.9399 315.212 95.1422H312.599C312.599 94.6279 312.411 94.2457 312.043 94.0025C311.667 93.7453 311.243 93.6133 310.764 93.6133C310.333 93.6133 309.937 93.7106 309.569 93.8913C309.214 94.0789 309.04 94.3639 309.04 94.753C309.04 95.0519 309.138 95.2812 309.346 95.448C309.569 95.6148 309.854 95.7538 310.208 95.865C310.555 95.9761 310.945 96.0873 311.375 96.1985C311.834 96.3097 312.307 96.4487 312.793 96.6155C313.294 96.7684 313.745 96.9769 314.155 97.2549C314.579 97.519 314.92 97.8664 315.184 98.3112C315.441 98.7421 315.573 99.298 315.573 99.9791C315.573 100.855 315.358 101.584 314.934 102.175C314.524 102.752 313.968 103.19 313.266 103.482C312.557 103.76 311.792 103.899 310.958 103.899Z" fill="white"/>
<path d="M338.286 91.4451L333.978 98.7282V103.648H331.281V98.7004L327.028 91.4451H329.836L332.643 96.3376L335.479 91.4451H338.286Z" fill="white"/>
<path d="M348.852 103.899C347.921 103.899 347.059 103.739 346.267 103.426C345.489 103.113 344.801 102.669 344.21 102.092C343.633 101.522 343.181 100.841 342.848 100.062C342.514 99.2841 342.348 98.4502 342.348 97.5606C342.348 96.6572 342.514 95.8093 342.848 95.031C343.181 94.2526 343.633 93.5785 344.21 93.0017C344.801 92.4318 345.489 91.9871 346.267 91.6674C347.059 91.3547 347.921 91.1948 348.852 91.1948C349.777 91.1948 350.638 91.3547 351.438 91.6674C352.23 91.9871 352.918 92.4318 353.495 93.0017C354.064 93.5785 354.523 94.2526 354.857 95.031C355.19 95.8093 355.357 96.6572 355.357 97.5606C355.357 98.4502 355.19 99.2841 354.857 100.062C354.523 100.841 354.064 101.522 353.495 102.092C352.918 102.669 352.23 103.113 351.438 103.426C350.638 103.739 349.777 103.899 348.852 103.899ZM348.852 101.425C349.589 101.425 350.249 101.258 350.826 100.924C351.396 100.577 351.855 100.111 352.188 99.5343C352.522 98.9644 352.688 98.3042 352.688 97.5606C352.688 96.824 352.522 96.1638 352.188 95.5869C351.855 94.9962 351.396 94.5306 350.826 94.197C350.249 93.8496 349.589 93.6689 348.852 93.6689C348.13 93.6689 347.476 93.8496 346.906 94.197C346.33 94.5306 345.864 94.9962 345.517 95.5869C345.183 96.1638 345.016 96.824 345.016 97.5606C345.016 98.2834 345.183 98.9436 345.517 99.5343C345.864 100.111 346.33 100.577 346.906 100.924C347.476 101.258 348.13 101.425 348.852 101.425Z" fill="white"/>
<path d="M365.456 103.899C364.49 103.899 363.628 103.69 362.871 103.287C362.106 102.884 361.508 102.314 361.064 101.591C360.633 100.869 360.424 100.028 360.424 99.0618V91.4451H363.065V98.9506C363.065 99.6942 363.288 100.299 363.732 100.757C364.177 101.202 364.747 101.425 365.456 101.425C366.158 101.425 366.735 101.202 367.179 100.757C367.624 100.299 367.846 99.6942 367.846 98.9506V91.4451H370.487V99.0618C370.487 100.028 370.265 100.869 369.82 101.591C369.389 102.314 368.799 102.884 368.041 103.287C367.277 103.69 366.415 103.899 365.456 103.899Z" fill="white"/>
<path d="M376.027 96.4762V95.2253C376.486 95.1697 376.819 94.996 377.028 94.6972C377.229 94.4053 377.334 94.0787 377.334 93.7242H375.888V91H378.64V93.5018C378.64 94.3914 378.39 95.0863 377.89 95.5867C377.403 96.0871 376.785 96.3859 376.027 96.4762Z" fill="white"/>
<path d="M386.565 101.202H391.235V103.648H383.924V91.4451H386.565V101.202Z" fill="white"/>
<path d="M398.79 101.202H403.46V103.648H396.149V91.4451H398.79V101.202Z" fill="white"/>
<path d="M418.313 101.202H422.984V103.648H415.673V91.4451H418.313V101.202Z" fill="white"/>
<path d="M433.68 103.899C432.748 103.899 431.887 103.739 431.094 103.426C430.316 103.113 429.628 102.669 429.037 102.092C428.46 101.522 428.009 100.841 427.675 100.062C427.342 99.2841 427.175 98.4502 427.175 97.5606C427.175 96.6572 427.342 95.8093 427.675 95.031C428.009 94.2526 428.46 93.5785 429.037 93.0017C429.628 92.4318 430.316 91.9871 431.094 91.6674C431.887 91.3547 432.748 91.1948 433.68 91.1948C434.604 91.1948 435.466 91.3547 436.265 91.6674C437.057 91.9871 437.745 92.4318 438.322 93.0017C438.892 93.5785 439.35 94.2526 439.684 95.031C440.018 95.8093 440.184 96.6572 440.184 97.5606C440.184 98.4502 440.018 99.2841 439.684 100.062C439.35 100.841 438.892 101.522 438.322 102.092C437.745 102.669 437.057 103.113 436.265 103.426C435.466 103.739 434.604 103.899 433.68 103.899ZM433.68 101.425C434.416 101.425 435.076 101.258 435.653 100.924C436.223 100.577 436.682 100.111 437.015 99.5343C437.349 98.9644 437.516 98.3042 437.516 97.5606C437.516 96.824 437.349 96.1638 437.015 95.5869C436.682 94.9962 436.223 94.5306 435.653 94.197C435.076 93.8496 434.416 93.6689 433.68 93.6689C432.957 93.6689 432.304 93.8496 431.734 94.197C431.157 94.5306 430.691 94.9962 430.344 95.5869C430.01 96.1638 429.843 96.824 429.843 97.5606C429.843 98.2834 430.01 98.9436 430.344 99.5343C430.691 100.111 431.157 100.577 431.734 100.924C432.304 101.258 432.957 101.425 433.68 101.425Z" fill="white"/>
<path d="M453.119 91.4451H455.982L451.368 103.648H448.894L444.112 91.4451H447.031L450.117 100.063L453.119 91.4451Z" fill="white"/>
<path d="M463.363 101.202H468.227V103.648H460.722V91.4451H468.033V93.8913H463.363V96.282H467.588V98.6726H463.363V101.202Z" fill="white"/>
<mask id="mask0_97_937" style="mask-type:luminance" maskUnits="userSpaceOnUse" x="531" y="0" width="94" height="107">
<path d="M531.784 0.272217H624.784V106.128H531.784V0.272217Z" fill="white"/>
</mask>
<g mask="url(#mask0_97_937)">
<path fill-rule="evenodd" clip-rule="evenodd" d="M545.199 54.4354V63.5302L536.806 58.9914L545.199 54.4354ZM611.355 54.4354L619.753 58.9914L611.355 63.5302V54.4354ZM555.841 3.59311H600.726C604.85 3.59311 608.192 7.06351 608.192 11.5126V94.8921C608.192 99.3455 604.85 102.816 600.726 102.816H555.841C551.717 102.816 548.379 99.3455 548.379 94.8921V11.5126C548.379 7.06351 551.717 3.59311 555.841 3.59311ZM555.841 0.426147C549.935 0.426147 545.199 5.43943 545.199 11.5126V50.8368L532.732 57.5938C531.634 58.1964 531.634 59.7778 532.732 60.3761L545.199 67.1203V94.8921C545.199 100.965 549.935 105.979 555.841 105.979H600.726C606.632 105.979 611.355 100.965 611.355 94.8921V67.1289L623.831 60.3761C624.929 59.7735 624.929 58.1964 623.831 57.5938L611.355 50.8368V11.5126C611.355 5.43943 606.632 0.426147 600.726 0.426147H555.841Z" fill="#FDB128"/>
</g>
<path d="M571.45 8.59777C569.343 8.70034 569.488 11.7605 571.604 11.7605H584.964C587.152 11.7605 587.152 8.50802 584.964 8.59777H571.45Z" fill="#FDB128"/>
<path d="M565.253 37.2287L576.694 43.3532V63.0558L565.253 56.9228V37.2287ZM591.315 37.2287V56.9228L579.865 63.0558V43.3532L591.315 37.2287ZM578.284 28.4116L589.571 34.566L578.284 40.6008L566.992 34.566L578.284 28.4116ZM577.523 25.2105L562.911 33.1813C562.402 33.4591 562.077 33.9891 562.077 34.5703V41.6992L552.679 46.7894C550.773 47.7809 552.307 50.6316 554.183 49.5845L562.077 45.3063V57.8759C562.077 58.4571 562.402 59.0042 562.919 59.2734L577.532 67.0989C577.997 67.3468 578.557 67.3468 579.023 67.0989L593.644 59.2734C594.161 58.9956 594.482 58.4614 594.482 57.8801V45.3021L602.389 49.5845C604.265 50.6316 605.799 47.7809 603.893 46.7894L594.482 41.6992V34.5746C594.482 33.9976 594.17 33.4591 593.661 33.1856L579.045 25.2148C578.425 24.8771 577.989 24.954 577.523 25.2105Z" fill="#FDB128"/>
<path d="M553.427 68.1848C551.756 68.1549 551.192 70.4029 552.679 71.1722L577.532 84.6393C577.993 84.8914 578.562 84.8914 579.036 84.6393L603.893 71.1722C604.696 70.7833 605.017 69.7832 604.59 68.9925C604.158 68.2019 603.154 67.9283 602.384 68.3899L578.284 81.4381L554.183 68.3899C553.948 68.2574 553.688 68.1848 553.427 68.1848Z" fill="#FDB128"/>
</svg>
